<svg width="16" height="16" viewBox="0 0 16 16" fill="none" xmlns="http://www.w3.org/2000/svg">
<path d="M2.75592 7.92512C2.75592 6.48228 3.34696 5.17852 4.2994 4.24072L5.45586 5.3615C4.78431 6.00835 4.36618 6.91779 4.36618 7.92512C4.36618 9.89037 5.95907 11.4833 7.92432 11.4833C8.93989 11.4833 9.85572 11.0587 10.5044 10.3771L11.7112 11.443C10.767 12.4586 9.42022 13.0935 7.92432 13.0935C5.06976 13.0935 2.75592 10.7797 2.75592 7.92512Z" fill="white"/>
<path d="M7.92451 2.75562C10.78 2.75562 13.0938 5.07037 13.0938 7.92493C13.0938 8.20215 13.0719 8.4748 13.0298 8.74104H11.3893H8.58234L7.2063 7.25521L7.92451 7.25612L11.4204 7.25521C11.1075 5.61017 9.66195 4.36588 7.92451 4.36588V2.75562Z" fill="white"/>
<path d="M7.9245 0C12.3015 0 15.8496 3.54807 15.8496 7.92506C15.8496 8.20045 15.8358 8.47219 15.8084 8.74117H14.0682C14.103 8.47402 14.1213 8.20137 14.1213 7.92506C14.1213 4.50234 11.3472 1.72829 7.9245 1.72829V0Z" fill="white"/>
<path d="M13.7762 13.2691C12.327 14.8547 10.2419 15.8492 7.92439 15.8492C3.54832 15.8492 0.000244141 12.3011 0.000244141 7.92507C0.000244141 5.73749 0.88589 3.7576 2.31866 2.323L3.56113 3.52612C2.42937 4.64873 1.72853 6.20502 1.72853 7.92507C1.72853 11.3469 4.50258 14.1209 7.92439 14.1209C9.72679 14.1209 11.349 13.3515 12.4807 12.1237L13.7762 13.2691Z" fill="white"/>
</svg>
