<svg width="92" height="85" viewBox="0 0 92 85" fill="none" xmlns="http://www.w3.org/2000/svg">
<path d="M71 54.5C71 58.71 68.326 62.5757 63.8896 65.4079C59.457 68.2373 53.3098 70 46.5 70C39.6902 70 33.5432 68.2373 29.1107 65.4079C24.6738 62.5757 22 58.71 22 54.5C22 50.29 24.6738 46.4243 29.1107 43.5921C33.5432 40.7627 39.6902 39 46.5 39C53.3098 39 59.457 40.7627 63.8896 43.5921C68.326 46.4243 71 50.29 71 54.5Z" stroke="#C64242" stroke-opacity="0.55"/>
<path d="M91 55.5C91 63.3224 86.0101 70.441 77.8643 75.617C69.7217 80.7911 58.4567 84 46 84C33.5433 84 22.2782 80.7911 14.1356 75.617C5.99011 70.441 1 63.3224 1 55.5C1 47.6776 5.99011 40.559 14.1356 35.383C22.2782 30.2089 33.5433 27 46 27C58.4567 27 69.7217 30.2089 77.8643 35.383C86.0101 40.559 91 47.6776 91 55.5Z" stroke="#C64242" stroke-opacity="0.2"/>
<mask id="mask0_166_1485" style="mask-type:luminance" maskUnits="userSpaceOnUse" x="25" y="0" width="42" height="56">
<path d="M67 0H25V56H67V0Z" fill="white"/>
</mask>
<g mask="url(#mask0_166_1485)">
<path d="M45.9895 55.4066C45.8631 55.1058 43.2358 52.5901 41.3544 50.3041C30.2077 35.8131 17.7801 22.3489 32.2917 5.98634C38.7171 -0.0921388 46.6401 -0.438897 54.7852 2.3944C77.7198 15.389 61.1148 36.5873 50.2119 50.5229L45.9895 55.4066ZM52.8884 33.1941C68.1858 22.4821 56.3592 1.85474 39.5521 8.71204C34.6442 11.2744 32.209 15.7328 32.1237 20.9916C31.8894 26.1074 34.664 30.3852 39.061 33.0057C42.2134 34.6858 43.5993 34.9892 47.1686 34.781C49.4821 34.646 50.8151 34.2762 52.8884 33.1941Z" fill="#C64242" fill-opacity="0.988235"/>
<path d="M41.605 38.3084C36.4127 37.2501 31.8691 34.2711 28.9663 30.0218C26.0634 25.7725 25.037 20.598 26.1111 15.6278C27.1852 10.6577 30.2726 6.29554 34.6992 3.49367C39.1259 0.691803 44.5323 -0.322243 49.7384 0.672913C54.9444 1.66806 59.5271 4.59159 62.4858 8.80529C65.4458 13.0189 66.5408 18.1806 65.5328 23.1634C64.5248 28.1462 61.4958 32.5455 57.1064 35.4009C52.7174 38.2564 47.3249 39.336 42.106 38.4042" fill="#C64242" fill-opacity="0.988235"/>
<path d="M42.9199 35.6047C39.062 34.7745 35.6862 32.4378 33.5294 29.1046C31.3726 25.7713 30.61 21.7123 31.408 17.8136C32.2061 13.9149 34.4999 10.4932 37.7889 8.29537C41.0779 6.09752 45.0948 5.30209 48.9629 6.08271C52.8309 6.86332 56.2358 9.15664 58.4344 12.4619C60.633 15.7672 61.447 19.8161 60.698 23.7247C59.9489 27.6333 57.6983 31.0842 54.4373 33.324C51.1763 35.5639 47.1696 36.4108 43.2921 35.6798" fill="#B72C2C"/>
<path d="M43.7734 30.3734C41.2221 29.8291 38.9896 28.297 37.5633 26.1114C36.1369 23.9259 35.6326 21.2645 36.1603 18.7083C36.6881 16.152 38.2051 13.9084 40.3802 12.4674C42.5552 11.0263 45.2117 10.5047 47.7698 11.0166C50.3278 11.5284 52.5796 13.032 54.0335 15.1992C55.4875 17.3664 56.0256 20.0212 55.5304 22.584C55.0351 25.1467 53.5467 27.4094 51.3902 28.878C49.2336 30.3466 46.5839 30.9019 44.0196 30.4227" fill="white"/>
</g>
<mask id="mask1_166_1485" style="mask-type:luminance" maskUnits="userSpaceOnUse" x="25" y="0" width="42" height="56">
<path d="M67 0H25V56H67V0Z" fill="white"/>
</mask>
<g mask="url(#mask1_166_1485)">
<path d="M45.9895 55.4066C45.8631 55.1058 43.2358 52.5901 41.3544 50.3041C30.2077 35.8131 17.7801 22.3489 32.2917 5.98634C38.7171 -0.0921388 46.6401 -0.438897 54.7852 2.3944C77.7198 15.389 61.1148 36.5873 50.2119 50.5229L45.9895 55.4066ZM52.8884 33.1941C68.1858 22.4821 56.3592 1.85474 39.5521 8.71204C34.6442 11.2744 32.209 15.7328 32.1237 20.9916C31.8894 26.1074 34.664 30.3852 39.061 33.0057C42.2134 34.6858 43.5993 34.9892 47.1686 34.781C49.4821 34.646 50.8151 34.2762 52.8884 33.1941Z" fill="#C64242" fill-opacity="0.988235"/>
<path d="M41.605 38.3084C36.4127 37.2501 31.8691 34.2711 28.9663 30.0218C26.0634 25.7725 25.037 20.598 26.1111 15.6278C27.1852 10.6577 30.2726 6.29554 34.6992 3.49367C39.1259 0.691803 44.5323 -0.322243 49.7384 0.672913C54.9444 1.66806 59.5271 4.59159 62.4858 8.80529C65.4458 13.0189 66.5408 18.1806 65.5328 23.1634C64.5248 28.1462 61.4958 32.5455 57.1064 35.4009C52.7174 38.2564 47.3249 39.336 42.106 38.4042" fill="#C64242" fill-opacity="0.988235"/>
<path d="M42.9199 35.6047C39.062 34.7745 35.6862 32.4378 33.5294 29.1046C31.3726 25.7713 30.61 21.7123 31.408 17.8136C32.2061 13.9149 34.4999 10.4932 37.7889 8.29537C41.0779 6.09752 45.0948 5.30209 48.9629 6.08271C52.8309 6.86332 56.2358 9.15664 58.4344 12.4619C60.633 15.7672 61.447 19.8161 60.698 23.7247C59.9489 27.6333 57.6983 31.0842 54.4373 33.324C51.1763 35.5639 47.1696 36.4108 43.2921 35.6798" fill="#B72C2C"/>
<path d="M43.7734 30.3734C41.2221 29.8291 38.9896 28.297 37.5633 26.1114C36.1369 23.9259 35.6326 21.2645 36.1603 18.7083C36.6881 16.152 38.2051 13.9084 40.3802 12.4674C42.5552 11.0263 45.2117 10.5047 47.7698 11.0166C50.3278 11.5284 52.5796 13.032 54.0335 15.1992C55.4875 17.3664 56.0256 20.0212 55.5304 22.584C55.0351 25.1467 53.5467 27.4094 51.3902 28.878C49.2336 30.3466 46.5839 30.9019 44.0196 30.4227" fill="white"/>
</g>
</svg>
